<?xml version="1.0" encoding="utf-8"?>
<!DOCTYPE svg PUBLIC "-//W3C//DTD SVG 1.1//EN" "http://www.w3.org/Graphics/SVG/1.1/DTD/svg11.dtd">
<svg version="1.1" xmlns="http://www.w3.org/2000/svg" xmlns:xlink="http://www.w3.org/1999/xlink" x="0px" y="0px" viewBox="0 0 1000 1000" enable-background="new 0 0 1000 1000" xml:space="preserve">
	<g>
		<path d="M989.4,165.1v-47c0-51.8-39-93.9-91.2-94L97.7,24.5C48.8,26.6,10.1,50.5,10,100L10.4,682c2.1,50,43.4,90.1,94.3,90.1h50.3v0.3l183.8-0.3c26.2,0,47.3-8.8,47.3-34.8c0-26-21.2-39.5-47.3-39.5l-200.4,0.3c-36.5-2.2-48.9-10.6-52.9-39.9l-0.3-520.5c4.9-27.2,18.1-35.3,52.6-37.6l776.8-0.4v1l-61.8-0.4c45.6,1,58.2,7.8,61.8,46.4l-0.5,506.7c-2.8,36.7-13.9,43.8-54.1,45.2l-323.5,0.4c-10.6-3.6-21.7-2-32,4.4c-7.1,3.1-12.8,7.9-16.6,14.2L302.7,900c-18.5,18.4-25.5,47.2-7,65.5c18.5,18.4,48.5,10.4,66.9-8l187.7-185l297.3-0.3v-0.1h50.3c52.3,0,91.4-42.1,91.4-94.1v-47h0.1l0.5-465.7L989.4,165.1L989.4,165.1z M913.9,698.6h-24.1l24.1-0.2V698.6L913.9,698.6z M852.6,100.4c-9.2-0.2-19.5-0.2-31.4-0.2L852.6,100.4L852.6,100.4z M556.1,399.3c0-31-25.3-56.1-56.5-56.1s-56.5,25.1-56.5,56.1s25.3,56.1,56.5,56.1S556.1,430.3,556.1,399.3L556.1,399.3z M235.9,399.3c0,31,25.3,56.1,56.5,56.1c31.2,0,56.5-25.1,56.5-56.1s-25.3-56.1-56.5-56.1C261.2,343.2,235.9,368.3,235.9,399.3L235.9,399.3z M763.3,399.3c0-31-25.3-56.1-56.5-56.1s-56.5,25.1-56.5,56.1s25.3,56.1,56.5,56.1S763.3,430.3,763.3,399.3L763.3,399.3z"/>
	</g>
</svg>